<svg width="54" height="54" viewBox="0 0 54 54" fill="none" xmlns="http://www.w3.org/2000/svg">
<path d="M36.1364 17.8182C36.1364 22.0264 33.6876 26.9654 31.1694 30.9129C29.9187 32.8734 28.6673 34.5647 27.7282 35.7659C27.2589 36.3663 26.8682 36.8436 26.5953 37.1702C26.582 37.1861 26.569 37.2017 26.5562 37.2169C26.5468 37.2051 26.5373 37.193 26.5276 37.1807C26.2695 36.8542 25.8999 36.3769 25.456 35.7766C24.5678 34.5754 23.3839 32.8841 22.2008 30.9235C19.8197 26.9776 17.5 22.0344 17.5 17.8182C17.5 12.6719 21.6719 8.5 26.8182 8.5C31.9645 8.5 36.1364 12.6719 36.1364 17.8182Z" stroke="currentColor" stroke-opacity="0.72"/>
<path d="M32.5 18C32.5 21.0376 30.0376 23.5 27 23.5C23.9624 23.5 21.5 21.0376 21.5 18C21.5 14.9624 23.9624 12.5 27 12.5C30.0376 12.5 32.5 14.9624 32.5 18Z" stroke="currentColor" stroke-opacity="0.72"/>
<path d="M30.7581 37.2661C31.8936 37.4348 32.9047 37.6764 33.7407 37.969C34.5843 38.2643 35.1957 38.5929 35.5766 38.9081C35.9639 39.2286 36 39.4337 36 39.5C36 39.5663 35.9639 39.7714 35.5766 40.0919C35.1957 40.4072 34.5843 40.7358 33.7407 41.031C32.0628 41.6183 29.6796 42 27 42C24.3204 42 21.9372 41.6183 20.2593 41.031C19.4157 40.7358 18.8043 40.4072 18.4234 40.0919C18.0361 39.7714 18 39.5663 18 39.5C18 39.4337 18.0361 39.2286 18.4234 38.9081C18.8043 38.5929 19.4157 38.2643 20.2593 37.969C21.0953 37.6764 22.1064 37.4348 23.2419 37.2661L22.5293 36.3684C19.2508 36.9429 17 38.1294 17 39.5C17 41.433 21.4772 43 27 43C32.5228 43 37 41.433 37 39.5C37 38.1294 34.7492 36.9429 31.4707 36.3684L30.7581 37.2661Z" fill="currentColor"/>
</svg>
